<?xml version="1.0" standalone="no"?>
<!DOCTYPE svg PUBLIC "-//W3C//DTD SVG 20010904//EN"
 "http://www.w3.org/TR/2001/REC-SVG-20010904/DTD/svg10.dtd">
<svg version="1.0" xmlns="http://www.w3.org/2000/svg"
 width="387.000000pt" height="387.000000pt" viewBox="0 0 387.000000 387.000000"
 preserveAspectRatio="xMidYMid meet">
<metadata>
Created by potrace 1.11, written by Peter Selinger 2001-2013
</metadata>
<g transform="translate(0.000000,387.000000) scale(0.100000,-0.100000)"
fill="#000000" stroke="none">
<path d="M1945 3580 c-3 -6 -4 -18 -1 -28 8 -24 -52 -84 -113 -114 -46 -23
-50 -23 -511 -25 -463 -1 -585 -7 -944 -43 -125 -13 -192 -24 -198 -32 -4 -7
-8 -30 -8 -50 0 -35 1 -37 38 -40 l37 -3 9 -150 c6 -99 5 -203 -2 -305 -7 -86
-9 -227 -5 -317 4 -112 2 -179 -6 -220 -10 -45 -10 -73 -1 -123 7 -40 9 -98 5
-150 l-7 -85 -66 -55 c-36 -30 -79 -63 -94 -73 -55 -37 -41 -138 27 -195 39
-33 65 -81 65 -121 0 -16 -7 -62 -15 -101 -24 -113 -56 -399 -49 -436 5 -29 2
-37 -31 -68 -37 -33 -38 -36 -32 -85 8 -67 39 -135 71 -156 42 -28 99 -31 132
-7 46 32 245 36 1579 34 1675 -2 1663 -2 1681 -27 8 -11 18 -31 21 -45 8 -35
53 -79 81 -80 13 0 34 12 48 27 20 22 25 36 22 65 -3 33 0 39 24 49 36 15 35
32 -2 65 -16 15 -27 31 -24 35 3 5 10 75 15 156 5 82 11 168 13 193 1 25 8 69
14 99 7 29 12 86 12 125 1 39 7 122 14 183 8 65 11 158 9 220 -6 108 -5 108
26 157 17 27 34 65 37 84 16 84 -53 187 -165 246 -45 23 -75 46 -81 61 -5 12
-14 69 -21 126 -15 131 -7 313 26 604 14 121 25 240 25 265 0 54 17 91 48 105
27 12 29 43 3 53 -10 4 -31 22 -46 40 -26 31 -28 32 -46 16 -11 -9 -19 -25
-19 -34 0 -24 -26 -44 -47 -35 -10 4 -173 8 -363 10 -190 2 -383 8 -430 14
-47 6 -179 12 -295 13 -204 2 -210 3 -229 25 -11 13 -28 23 -38 23 -10 0 -34
18 -54 40 -20 22 -44 40 -54 40 -10 0 -20 9 -23 20 -5 21 -51 29 -62 10z m640
-211 c88 -6 329 -14 536 -17 421 -8 422 -8 435 -78 4 -20 -6 -146 -22 -292
-23 -202 -29 -301 -29 -464 0 -140 -3 -208 -10 -208 -19 0 -58 32 -185 151
-175 164 -359 324 -631 551 -129 107 -243 205 -254 217 -11 13 -42 39 -70 59
-27 19 -61 45 -73 56 l-24 21 59 6 c96 9 102 9 268 -2z m-855 -5 c0 -4 -16
-28 -36 -55 -38 -52 -348 -349 -363 -349 -6 0 -12 -9 -16 -19 -3 -11 -47 -53
-98 -94 -153 -123 -298 -257 -617 -571 l-305 -301 -3 245 c-3 242 9 586 29
832 11 137 5 185 -31 231 l-20 25 78 11 c152 22 280 33 452 40 219 10 930 13
930 5z m335 -73 c9 -30 33 -47 47 -33 17 17 53 15 69 -4 8 -9 66 -58 129 -109
197 -157 483 -436 575 -560 16 -22 72 -87 125 -145 52 -58 144 -159 202 -225
59 -66 160 -172 224 -235 64 -63 120 -126 125 -139 5 -13 7 -38 3 -56 l-6 -33
-296 -8 c-164 -5 -516 -9 -784 -9 -447 0 -489 1 -504 17 -17 16 -17 27 0 185
21 201 16 431 -9 469 -9 13 -18 24 -21 24 -3 0 -2 -78 2 -172 5 -139 3 -194
-10 -277 -9 -57 -21 -112 -27 -122 -14 -28 -42 -39 -95 -39 -63 0 -84 20 -84
76 0 49 17 173 30 219 5 17 14 113 20 215 6 102 18 254 26 339 12 115 13 156
4 165 -8 8 -15 7 -24 -6 -21 -28 -49 -336 -50 -538 -1 -136 -4 -188 -14 -195
-13 -11 -42 -132 -42 -180 0 -35 -21 -70 -52 -86 -20 -11 -227 -29 -383 -33
-223 -7 -421 -20 -495 -32 -47 -7 -129 -17 -184 -20 l-98 -7 12 24 c7 13 34
46 59 74 26 27 66 75 90 105 23 30 71 89 107 130 35 41 64 79 64 83 0 5 29 41
64 80 36 40 107 124 158 186 51 63 118 135 148 159 104 84 243 207 314 280 54
54 79 72 99 72 25 0 27 -3 27 -40 0 -22 4 -40 9 -40 17 0 51 90 51 135 0 42 5
50 60 107 l60 61 0 -39 c0 -70 54 -110 84 -62 13 22 -22 67 -37 46 -5 -8 -6
-4 -2 12 4 14 8 43 10 66 3 48 20 84 40 84 18 0 32 -73 43 -219 10 -128 6
-156 -38 -258 -33 -80 -37 -105 -16 -122 12 -10 17 -7 29 15 14 27 14 26 22
-27 4 -30 7 -75 6 -100 -1 -30 3 -50 13 -59 26 -21 29 7 21 223 -9 285 -9 293
13 382 11 44 24 107 28 140 3 33 8 63 11 68 9 15 42 6 48 -12z m-445 -336 c0
-8 -4 -15 -10 -15 -5 0 -10 7 -10 15 0 8 5 15 10 15 6 0 10 -7 10 -15z m1483
-498 c24 -9 22 -47 -3 -47 -15 0 -20 7 -20 25 0 14 -4 25 -10 25 -5 0 -10 8
-10 18 1 15 2 15 13 1 7 -8 20 -18 30 -22z m78 -75 c15 -9 55 -45 90 -79 109
-105 214 -200 236 -212 15 -8 24 -25 29 -56 3 -25 4 -48 1 -51 -12 -12 -96 59
-208 173 -111 114 -209 225 -209 237 0 12 36 5 61 -12z m-2477 -281 c-11 -9
-24 -28 -27 -41 -3 -14 -29 -47 -56 -73 l-49 -47 10 32 c21 66 38 98 51 98 7
0 24 10 37 23 14 12 28 21 32 20 5 -2 8 2 8 9 0 6 3 8 8 4 4 -4 -2 -15 -14
-25z m2925 -285 c1 -93 -17 -54 -23 49 -5 86 -5 88 8 50 8 -22 15 -67 15 -99z
m-3182 18 c-34 -60 -77 -97 -104 -92 -13 2 1 22 53 76 38 39 72 72 76 72 4 0
-7 -25 -25 -56z m1417 -94 c5 -5 4 -22 -3 -41 -6 -17 -11 -50 -11 -73 l1 -41
19 39 c11 22 21 41 23 43 2 1 276 5 608 7 332 3 695 10 806 16 218 12 236 10
253 -36 21 -55 9 -788 -13 -810 -2 -3 -17 0 -32 6 -21 8 -46 7 -99 -5 -60 -13
-187 -16 -793 -18 l-722 -2 -3 85 c-3 91 6 329 18 451 l7 74 -24 -29 c-20 -25
-24 -45 -30 -140 -4 -61 -8 -167 -8 -236 -1 -69 -4 -142 -7 -162 l-7 -38 -281
0 c-318 -1 -965 -15 -1132 -26 l-110 -7 2 409 c2 360 4 409 18 420 9 6 96 16
209 23 105 6 225 16 266 22 141 21 206 22 221 4 11 -13 10 -19 -5 -35 -22 -24
-13 -59 10 -40 8 7 15 18 15 26 0 7 12 26 26 41 l26 28 175 -3 c97 -2 214 2
265 8 l91 12 21 -27 c21 -26 23 -26 39 -11 9 10 17 25 17 33 0 9 8 25 17 36
15 16 26 18 68 12 27 -3 54 -10 59 -15z m-1577 -677 c-8 -161 -16 -223 -29
-223 -14 0 -4 241 12 308 8 28 16 52 18 52 3 0 2 -62 -1 -137z"/>
<path d="M1502 2667 c-6 -7 -17 -39 -26 -71 -8 -33 -24 -72 -36 -88 -21 -29
-26 -48 -11 -48 19 0 92 125 106 182 7 28 -16 46 -33 25z"/>
<path d="M1346 2378 c-13 -46 -29 -94 -56 -171 -17 -48 -30 -93 -27 -100 6
-18 95 140 113 199 8 28 12 58 8 67 -7 20 -33 23 -38 5z"/>
<path d="M1197 1976 c-30 -27 -40 -58 -35 -106 3 -31 4 -30 43 41 51 93 49 89
32 89 -8 0 -26 -11 -40 -24z"/>
<path d="M795 1516 c-78 -39 -180 -131 -187 -168 -2 -12 0 -39 5 -58 l9 -34
36 68 c41 78 93 122 184 156 91 35 123 2 93 -95 -8 -27 -15 -60 -15 -73 0 -39
32 -10 50 45 21 68 44 69 104 2 26 -29 56 -65 67 -81 l20 -28 -26 -10 c-55
-21 -38 -70 24 -70 77 0 111 51 111 169 0 72 -2 81 -22 92 -30 16 -48 -11 -48
-73 0 -28 -5 -48 -11 -48 -6 0 -62 52 -125 116 -104 107 -117 117 -156 121
-35 4 -56 -2 -113 -31z"/>
<path d="M3014 1450 c-33 -16 -120 -80 -194 -141 l-134 -111 -23 27 c-23 27
-53 28 -53 3 0 -24 31 -103 43 -110 7 -4 31 -8 53 -8 45 0 55 11 47 52 -4 22
8 36 99 110 184 152 202 156 317 70 l34 -25 -7 42 c-13 81 -48 121 -105 121
-10 0 -45 -13 -77 -30z"/>
<path d="M2994 1206 c-12 -48 4 -106 55 -208 28 -55 51 -108 52 -117 0 -10 4
-6 10 9 14 35 3 86 -36 155 -18 33 -40 86 -48 118 -19 71 -24 78 -33 43z"/>
<path d="M768 1123 c-8 -10 -18 -45 -22 -77 -4 -33 -18 -86 -33 -118 -38 -85
-15 -117 34 -45 25 36 40 101 46 195 3 66 -1 73 -25 45z"/>
</g>
</svg>
